<?xml version="1.0" encoding="utf-8"?>
<!-- Generator: Adobe Illustrator 26.3.1, SVG Export Plug-In . SVG Version: 6.00 Build 0)  -->
<svg version="1.1" id="Layer_1" xmlns="http://www.w3.org/2000/svg" xmlns:xlink="http://www.w3.org/1999/xlink" x="0px" y="0px"
	 viewBox="0 0 272 112" style="enable-background:new 0 0 272 112;" xml:space="preserve">
<style type="text/css">
	.st0{fill:#26D07C;}
	.st1{opacity:0.75;}
	.st2{fill:none;}
</style>
<g>
	<path class="st0" d="M70.1,32.8v28.6c0,9-4.1,13.5-11.6,13.5c-1.6,0-3-0.2-4.2-0.6c-4.6-1.5-6.8-5.8-6.8-12.9V32.8v-0.4
		c-10.5,0-12,0-12,6.3v24.4c0,4.4,0.8,8.1,2.2,11.1c0.1,0.2,0.2,0.4,0.3,0.6c1.8,3.7,4.5,6.4,7.9,8.2c0.5,0.3,1,0.5,1.5,0.7
		c3.3,1.4,7.1,2.1,11.1,2.1c12.8,0,23.5-6.7,23.5-22.7V32.8L70.1,32.8L70.1,32.8z"/>
	<path class="st0" d="M107.8,85.5L88.4,33.8v-1h14.1L115,71.6c5.6-13.3,10.2-27.2,13.3-38.8h13.5C136.2,50,129,67.7,120.9,83.1
		C117.1,84.8,112.3,85.5,107.8,85.5z"/>
	<path class="st0" d="M154.5,23.2c-5.8,0-7.8-2.5-7.8-7.4c0-4.7,2-7.4,7.8-7.4c5.5,0,7.8,2.7,7.8,7.4
		C162.3,20.8,160,23.2,154.5,23.2z"/>
	<path class="st0" d="M148,84.8v-46c0-6.3,1.5-6.3,12-6.3V85h-12V84.8z"/>
	<path class="st0" d="M171.1,27.3c0-6.3,1.5-6.3,12-6.3v12h16.1c4.4,0,4.4,2.8,4.4,9.9h-20.5v19.6c0,8.9,2.7,13.4,10.2,13.4
		c3.3,0,6.7-0.9,9.6-2.3v3.5c0,6.6-8.2,8.7-14.6,8.7c-9.9,0-17.2-4.6-17.2-21V27.3z"/>
	<path class="st0" d="M260.4,34l-18.7,50.4c-1.9,13.4-8.7,19.1-17.8,19.1c-4.9,0-9.8-1.7-9.8-6.8v-4.1c1.8,0.5,3.8,0.8,5.5,0.8
		c5.1,0,8.5-2.5,9.8-8.1c-9.7-17.6-17.4-35.6-23.2-52.6h14.6c3.5,12.8,8.9,26.8,14.4,38.4l12.3-38.4h13L260.4,34L260.4,34z"/>
	<g class="st1">
		<path class="st0" d="M19.4,23.2c5.5,0,7.8-2.5,7.8-7.4c0-4.7-2.4-7.4-7.8-7.4c-5.8,0-7.8,2.7-7.8,7.4
			C11.5,20.8,13.6,23.2,19.4,23.2z"/>
		<path class="st0" d="M34.1,76.5L34,76.3c-0.1-0.2-0.2-0.4-0.3-0.6c-0.1-0.2-0.1-0.3-0.2-0.5l0,0l0,0c-0.1-0.2-0.3-0.3-0.6-0.4
			h-0.1c-5.8-0.9-8.5-5.4-8.5-13.3v-29c-10.5,0-12,0-12,6.3v24.4c0,16,10.2,22.7,23,22.7c2.3,0,4.5-0.2,6.6-0.7
			C38.5,83,35.9,80.2,34.1,76.5z"/>
	</g>
</g>
<rect class="st2" width="272" height="112"/>
</svg>
